<?xml version="1.0" encoding="UTF-8" standalone="no"?>
<!-- Created with Inkscape (http://www.inkscape.org/) -->

<svg
   width="512mm"
   height="512mm"
   viewBox="0 0 512 512"
   version="1.1"
   id="svg1"
   inkscape:version="1.4.2 (ebf0e940d0, 2025-05-08)"
   sodipodi:docname="Dreadnot.svg"
   xmlns:inkscape="http://www.inkscape.org/namespaces/inkscape"
   xmlns:sodipodi="http://sodipodi.sourceforge.net/DTD/sodipodi-0.dtd"
   xmlns="http://www.w3.org/2000/svg"
   xmlns:svg="http://www.w3.org/2000/svg">
  <sodipodi:namedview
     id="namedview1"
     pagecolor="#505050"
     bordercolor="#eeeeee"
     borderopacity="1"
     inkscape:showpageshadow="0"
     inkscape:pageopacity="0"
     inkscape:pagecheckerboard="0"
     inkscape:deskcolor="#505050"
     inkscape:document-units="mm"
     inkscape:zoom="0.35358209"
     inkscape:cx="851.28746"
     inkscape:cy="905.02321"
     inkscape:window-width="1260"
     inkscape:window-height="653"
     inkscape:window-x="0"
     inkscape:window-y="0"
     inkscape:window-maximized="1"
     inkscape:current-layer="g47" />
  <defs
     id="defs1" />
  <g
     inkscape:label="Layer 1"
     inkscape:groupmode="layer"
     id="layer1">
    <g
       id="g47"
       transform="matrix(0.8743692,0,0,0.90769231,-2.743881,-12)">
      <g
         id="g49"
         style="fill:#f9f9f9">
        <g
           id="g48"
           transform="translate(31.841045,295.25424)"
           style="fill:#f9f9f9">
          <g
             id="g36"
             transform="matrix(1.0848119,0,0,0.86969829,-5.4237016,-86.515086)"
             style="fill:#f9f9f9">
            <g
               id="g13"
               transform="matrix(1.0000011,0,0,1,211.99967,0)"
               style="fill:#f9f9f9">
              <g
                 id="g12"
                 style="fill:#f9f9f9">
                <g
                   id="g10"
                   style="fill:#f9f9f9">
                  <path
                     style="fill:#f9f9f9;stroke-width:0.715091"
                     d="M 300,100 0,0 c 88.222966,0.90698833 195.87434,21.720291 300,100 z"
                     id="path2"
                     sodipodi:nodetypes="ccc" />
                  <path
                     style="fill:#f9f9f9;stroke-width:0.499999"
                     d="M 0,0 V 100.0125 L 300,100 296.80447,98.490492 68.848628,14.780004 11.509375,1.8520833 9.0619791,1.5875 1.984375,0.46302083 0,0"
                     id="path9" />
                </g>
                <g
                   id="g11"
                   transform="matrix(1,0,0,-1,0,200.0125)"
                   style="fill:#f9f9f9">
                  <path
                     style="fill:#f9f9f9;stroke-width:0.715091"
                     d="M 300,100 0,0 c 88.222966,0.90698833 195.87434,21.720291 300,100 z"
                     id="path10"
                     sodipodi:nodetypes="ccc" />
                  <path
                     style="fill:#f9f9f9;stroke-width:0.499999"
                     d="M 0,0 V 100.0125 L 300,100 296.80447,98.490492 68.848628,14.780004 11.509375,1.8520833 9.0619791,1.5875 1.984375,0.46302083 0,0"
                     id="path11" />
                </g>
                <path
                   style="fill:#f9f9f9;stroke-width:0.499999"
                   d="m 285.22083,95.779165 c -6.62498,-4.534963 -13.61345,-3.164652 -21.16667,-3.704166 -4.6048,-0.328914 -9.14755,-1.356961 -13.75833,-1.5875 -13.74117,-0.68706 -27.53153,0.639231 -41.275,0 -67.80045,-3.153511 36.19318,-2.116667 -55.03333,-2.116667 -9.87778,0 -19.75556,0 -29.63333,0 -2.82223,0 -5.65031,0.1817 -8.46667,0 -2.66371,-0.171852 -5.27612,-0.853612 -7.9375,-1.058333 -1.93456,-0.148812 -3.88211,0.07755 -5.82083,0 -6.533549,-0.261342 -13.062735,-0.55707 -19.579171,-1.058333 -2.643897,-0.203378 -5.321874,-0.09323 -7.9375,-0.529167 -1.650603,-0.275101 -3.128976,-1.224494 -4.7625,-1.5875 -2.435114,-0.541136 -4.929076,-0.78286 -7.408333,-1.058333 -1.848303,-0.205367 -4.560861,0.596378 -6.35,0 -3.115172,-1.038392 -6.206321,-2.230999 -9.525,-2.645834 -1.374696,-0.171836 -5.927937,-0.422063 -6.35,0 -0.124727,0.124725 0.124725,0.40444 0,0.529167 -0.252015,0.252016 -6.912425,3.362476 -7.9375,3.704167 -0.669348,0.223115 -1.424813,-0.138372 -2.116666,0 -1.353852,0.270769 -5.413952,0.590309 -6.35,1.058333 -0.223117,0.111559 -0.292516,0.450284 -0.529167,0.529167 -0.836686,0.278894 -1.775889,-0.144992 -2.645833,0 -2.58708,0.43118 -4.739463,2.105146 -6.879167,3.175 -0.858592,0.429294 -0.199742,0.629036 -1.058333,1.058333 -0.315534,0.157766 -0.808882,-0.249452 -1.058333,0 -0.264584,0.264583 -0.264584,0.79375 -0.529167,1.058333 -0.249452,0.249452 -0.7428,-0.157768 -1.058333,0 -0.6350005,0.3175 -0.9525004,1.27 -1.5875004,1.5875 -0.1577671,0.07888 -0.4044411,-0.124727 -0.5291667,0 -0.176389,0.176387 -0.3527777,1.41111 -0.5291667,1.5875 -0.1763889,0.176387 -0.3527776,-0.352779 -0.5291666,-0.529167 -0.2494516,-0.249451 -0.8088818,0.249452 -1.0583333,0 -0.1247259,-0.124727 0.1247256,-0.404442 0,-0.529166 -0.4466852,-0.446686 -2.8546311,-0.424768 -3.7041667,0 C 1.0958538,94.172904 1.9334378,94.558124 1.5875,95.249999 1.1282219,96.168555 0.64265,96.40269 0,97.366665 -0.81410359,98.587821 -1.779815,106.50704 -1.0583333,107.95 c 0.0788835,0.15776 0.40444087,-0.12473 0.52916664,0 0.24945154,0.24945 -0.24945154,0.80888 0,1.05833 0.26458333,0.26459 0.79374999,0.26459 1.05833332,0.52917 0.20050548,0.2005 0.17177641,1.5875 0.52916664,1.5875 0.2494516,0 0.2797151,-0.52917 0.5291667,-0.52917 0.1763888,0 -0.1247258,0.40444 0,0.52917 0.2494515,0.24945 0.8088817,-0.24945 1.0583333,0 0.1247256,0.12472 -0.078883,0.3714 0,0.52917 0.3646231,0.72924 1.2410368,0.71186 1.5875,1.05833 0.1247256,0.12472 -0.1577671,0.45028 0,0.52917 0.3155341,0.15776 0.7103554,-0.058 1.0583333,0 0.7173746,0.11956 1.406715,0.37139 2.1166666,0.52916 7.1992258,1.59983 14.3611488,1.5875 21.6958328,1.5875 11.28889,0 22.577777,0 33.866667,0 4.938889,0 9.877776,0 14.816666,0 1.76389,0 3.545507,0.24945 5.291667,0 0.780907,-0.11156 1.41111,-0.70555 2.116666,-1.05833 2.99861,-0.17639 5.994257,-0.41372 8.995833,-0.52917 15.639025,-0.6015 31.439035,0 47.095835,0 5.60411,0 11.33291,0.29476 16.93333,0 5.66573,-0.29819 11.28046,-1.27345 16.93333,-1.5875 7.03158,-0.39064 14.12873,0.26067 21.16667,0 9.3795,-0.34739 18.64652,-0.52916 28.04583,-0.52916 6.04704,0 12.19304,0.39132 17.99167,-1.05834 2.24225,-0.56056 5.10985,0.22985 7.40833,0 0.89495,-0.0895 1.75546,-0.40197 2.64584,-0.52916 3.1115,-0.4445 6.4135,0.4445 9.525,0 0.55218,-0.0789 1.0297,-0.52917 1.5875,-0.52917 0.55779,0 1.0297,0.52917 1.5875,0.52917 2.15624,0 4.2777,-0.7623 6.35,-1.05834 1.04769,-0.14967 2.17098,0.33468 3.175,0 0.86571,-0.28857 1.78884,-1.159 2.64583,-1.5875 0.31554,-0.15777 0.74279,0.15777 1.05833,0 0.6164,-0.3082 0.97108,-0.75013 1.5875,-1.05833 0.54264,-0.27132 1.57404,-0.25785 2.11667,-0.52917 1.3475,-0.67375 2.86922,-1.43461 4.23333,-2.11666 0.31555,-0.15777 0.80889,0.24945 1.05834,0 0.12472,-0.12473 -0.12473,-0.40445 0,-0.52917 0.13155,-0.13155 5.0071,-0.24462 5.29166,-0.52917 0.12473,-0.12473 -0.12472,-0.40444 0,-0.52916 0.2789,-0.2789 0.77944,-0.25028 1.05834,-0.52917 0.75305,-0.75305 -1.46315,-3.37741 -2.11667,-3.704168 -0.15777,-0.07888 -0.40444,0.124725 -0.52917,0 -0.12472,-0.124727 0.12473,-0.404442 0,-0.529167 -0.26458,-0.264583 -1.32291,0.264584 -1.5875,0 -0.12472,-0.124727 0.12473,-0.404442 0,-0.529166 -0.12472,-0.124727 -0.35803,0.04278 -0.52916,0 -1.24579,-0.311449 -2.46944,-0.705557 -3.70417,-1.058334 z"
                   id="path12" />
              </g>
              <path
                 style="fill:#f9f9f9;stroke-width:0.499999"
                 d="m 299.70436,99.91704 c -0.0156,-0.0039 -0.0308,-0.0097 -0.0468,-0.0117 -0.12253,-0.01532 -0.25082,0.0077 -0.37417,0 -0.1211,-0.0076 -0.24112,-0.01871 -0.36248,-0.02339 -0.10779,-0.0042 -0.1601,0.0081 -0.26895,-0.0117 -0.04,-0.0073 -0.0772,-0.02643 -0.11695,-0.03508 -0.31056,-0.06752 0.0109,0.02617 -0.3157,-0.05847 -0.0887,-0.006 -0.16211,-0.05989 -0.24556,-0.08185 -0.0421,-0.01109 -0.0863,-0.01283 -0.12861,-0.02339 -0.0425,-0.01061 -0.0844,-0.04046 -0.12862,-0.04677 -0.027,-0.0039 -0.0552,0.0059 -0.0819,0 -0.0241,-0.0053 -0.0459,-0.01934 -0.0702,-0.02339 -0.023,-0.0038 -0.0468,0 -0.0702,0 -0.0351,-0.0039 -0.0706,-0.0048 -0.10525,-0.0117 -0.0241,-0.0048 -0.0457,-0.02013 -0.0701,-0.02339 -0.0843,-0.01124 -0.17285,0.01056 -0.25725,0 -0.0357,-0.0045 -0.0696,-0.01918 -0.10525,-0.02339 -0.0937,-0.01103 -0.33933,-0.004 -0.40926,0 -0.0627,0.0036 -0.12422,0.02339 -0.18709,0.02339 -0.0667,0 -0.13226,-0.01799 -0.19878,-0.02339 -0.0778,-0.0063 -0.15608,-0.0051 -0.23386,-0.01169 -0.10549,-0.009 -0.21016,-0.02657 -0.31571,-0.03508 -0.1362,-0.01098 -0.27326,-0.01021 -0.40925,-0.02339 -0.10589,-0.01024 -0.20961,-0.03892 -0.3157,-0.04677 -0.10496,-0.0078 -0.21048,0 -0.31573,0 -0.50416,0 -0.0541,-0.0062 -0.63143,0.02339 -0.23077,0.01183 0.008,-0.03287 -0.39756,0 -0.048,0.0039 -0.0929,0.02606 -0.14031,0.03508 -0.19958,0.02217 -0.0183,-0.0039 -0.18709,0.03508 -0.0727,0.01677 -0.15004,0.01704 -0.22217,0.03508 -0.0588,0.01471 -0.18113,0.06537 -0.23386,0.08185 -0.0191,0.0059 -0.0407,0.0028 -0.0585,0.0117 -0.008,0.0039 -0.006,0.01722 -0.0116,0.02339 -0.006,0.0062 -0.0172,0.0055 -0.0233,0.0117 -0.0358,0.03583 -0.12769,0.170759 -0.14034,0.210476 -0.0193,0.06096 -0.0324,0.235044 -0.0233,0.304014 0.006,0.0441 0.0209,0.0865 0.0351,0.12863 0.0652,0.19572 0.12497,0.22484 0.32743,0.29232 0.10765,0.0359 0.21812,0.0629 0.32739,0.0935 0.1129,0.0317 0.22405,0.0709 0.33909,0.0935 0.1039,0.0204 0.21191,0.0143 0.31573,0.0351 0.0725,0.0145 0.13946,0.0495 0.21047,0.0702 0.12166,0.0353 0.18812,0.0441 0.31571,0.0468 0.28225,0.006 0.45873,0.003 0.73667,-0.0234 0.12896,-0.0123 0.25668,-0.037 0.38587,-0.0468 0.0777,-0.006 0.1559,0 0.23384,0 0.21812,0 0.43678,0.004 0.65482,0 0.24627,-0.005 0.40309,-0.002 0.63143,-0.0351 0.0628,-0.009 0.12401,-0.0283 0.18708,-0.0351 0.0815,-0.009 0.16381,-0.006 0.24556,-0.0117 0.1355,-0.009 0.40791,-0.0373 0.53788,-0.0585 0.14501,-0.0236 0.26109,-0.0662 0.39756,-0.10524 0.0355,-0.0101 0.0823,-0.008 0.11694,-0.0234 0.0177,-0.008 0.0294,-0.0264 0.0468,-0.0351 0.0143,-0.007 0.0324,-0.004 0.0468,-0.0117 0.01,-0.005 0.0132,-0.0193 0.0233,-0.0234 0.0109,-0.004 0.0236,0.001 0.0351,0 0.0477,-0.005 0.0963,-0.0151 0.14031,-0.0351 0.0446,-0.0203 0.0671,-0.0473 0.10525,-0.0702 0.0106,-0.006 0.0241,-0.006 0.0351,-0.0117 0.0558,-0.0279 0.10647,-0.0681 0.1637,-0.0935 0.0748,-0.0332 0.15717,-0.0531 0.23387,-0.0819 0.008,-0.004 0.0156,-0.008 0.0233,-0.0117 0,-0.004 -0.003,-0.01 0,-0.0117 0.0143,-0.007 0.0324,-0.004 0.0468,-0.0117 0.036,-0.018 0.0669,-0.0669 0.0936,-0.0935 0.004,-0.004 0.0688,-0.0455 0.0701,-0.0468 0.006,-0.006 0.007,-0.0161 0.0116,-0.0234 0.0305,-0.0457 0.0964,-0.102749 0.12864,-0.140312 z"
                 id="path13" />
            </g>
            <g
               id="g18"
               style="fill:#f9f9f9">
              <path
                 style="fill:#f9f9f9;stroke-width:0.499999"
                 d="m 212,0 -12,30 v 74.76966 22.45064 h 59.14606 L 227.71512,37.41774 216.09454,4.46176 Z"
                 id="path14"
                 sodipodi:nodetypes="cccccccc" />
              <path
                 style="fill:#f9f9f9;stroke-width:0.499999"
                 d="m 200,30 h -70 v 96.37081 l 99.57303,0.84949 2.809,-76.46855 z"
                 id="path15"
                 sodipodi:nodetypes="cccccc" />
              <path
                 style="fill:#f9f9f9;stroke-width:0.499999"
                 d="m 130,30 -10.43267,10 h -2.10187 L 90,-50 H 70.059758 V 123.33874 H 231.15525 L 139.7,45.308107 Z"
                 id="path16"
                 sodipodi:nodetypes="ccccccccc" />
              <path
                 style="fill:#f9f9f9;stroke-width:0.499999"
                 d="M 89.999999,-50 H 30 V 133.49029 H 230.78988 V 100.01172 H 70.059758 L 89.999999,-50"
                 id="path17"
                 sodipodi:nodetypes="ccccccc" />
              <path
                 style="fill:#f9f9f9;stroke-width:0.499999"
                 d="M 30.000415,-50 15,-14.587806 H 5 V 143.57622 H 257.99571 L 220.02513,91.959979 59.2435,86.620367 Z"
                 id="path18"
                 sodipodi:nodetypes="cccccccc" />
            </g>
            <g
               id="g35"
               transform="matrix(1,0,0,-1,-3.3e-4,198.95425)"
               style="fill:#f9f9f9">
              <path
                 style="fill:#f9f9f9;stroke-width:0.499999"
                 d="m 212,0 -12,30 v 74.76966 22.45064 h 59.14606 L 227.71512,37.41774 216.09454,4.46176 Z"
                 id="path31"
                 sodipodi:nodetypes="cccccccc" />
              <path
                 style="fill:#f9f9f9;stroke-width:0.499999"
                 d="m 200,30 h -70 v 96.37081 l 99.57303,0.84949 2.809,-76.46855 z"
                 id="path32"
                 sodipodi:nodetypes="cccccc" />
              <path
                 style="fill:#f9f9f9;stroke-width:0.499999"
                 d="m 130,30 -10.43267,10 h -2.10187 L 90,-50 H 70.059758 V 123.33874 H 231.15525 L 139.7,45.308107 Z"
                 id="path33"
                 sodipodi:nodetypes="ccccccccc" />
              <path
                 style="fill:#f9f9f9;stroke-width:0.499999"
                 d="M 89.999999,-50 H 30 V 133.49029 H 230.78988 V 100.01172 H 70.059758 L 89.999999,-50"
                 id="path34"
                 sodipodi:nodetypes="ccccccc" />
              <path
                 style="fill:#f9f9f9;stroke-width:0.499999"
                 d="M 30.000415,-50 15,-14.587806 H 5 V 143.57622 H 257.99571 L 220.02513,91.959979 59.2435,86.620367 Z"
                 id="path35"
                 sodipodi:nodetypes="cccccccc" />
            </g>
          </g>
          <g
             id="g46"
             style="fill:#f9f9f9">
            <g
               id="g38"
               style="fill:#f9f9f9">
              <rect
                 style="fill:#f9f9f9;stroke-width:0.499999"
                 id="rect36"
                 width="20"
                 height="15"
                 x="-20"
                 y="-15" />
              <rect
                 style="fill:#f9f9f9;stroke-width:0.499999"
                 id="rect37"
                 width="20"
                 height="15"
                 x="-20"
                 y="0" />
              <rect
                 style="fill:#f9f9f9;stroke-width:0.505897"
                 id="rect38"
                 width="2"
                 height="26"
                 x="-21.84083"
                 y="-13" />
            </g>
            <g
               id="g41"
               transform="matrix(0.91571612,0,0,0.93333333,-8.7927e-8,-31)"
               style="fill:#f9f9f9">
              <rect
                 style="fill:#f9f9f9;stroke-width:0.499999"
                 id="rect39"
                 width="20"
                 height="15"
                 x="-20"
                 y="-15" />
              <rect
                 style="fill:#f9f9f9;stroke-width:0.499999"
                 id="rect40"
                 width="20"
                 height="15"
                 x="-20"
                 y="0" />
              <rect
                 style="fill:#f9f9f9;stroke-width:0.505897"
                 id="rect41"
                 width="2"
                 height="26"
                 x="-21.84083"
                 y="-13" />
            </g>
            <g
               id="g44"
               transform="matrix(0.91571612,0,0,0.93333333,3.579e-4,31)"
               style="fill:#f9f9f9">
              <rect
                 style="fill:#f9f9f9;stroke-width:0.499999"
                 id="rect42"
                 width="20"
                 height="15"
                 x="-20"
                 y="-15" />
              <rect
                 style="fill:#f9f9f9;stroke-width:0.499999"
                 id="rect43"
                 width="20"
                 height="15"
                 x="-20"
                 y="0" />
              <rect
                 style="fill:#f9f9f9;stroke-width:0.505897"
                 id="rect44"
                 width="2"
                 height="26"
                 x="-21.84083"
                 y="-13" />
            </g>
            <rect
               style="fill:#f9f9f9;stroke-width:0.499999"
               id="rect45"
               width="37.369362"
               height="8.7966824"
               x="-19.114594"
               y="27.316013" />
            <rect
               style="fill:#f9f9f9;stroke-width:0.499999"
               id="rect46"
               width="25.067236"
               height="6.3494844"
               x="-19.048454"
               y="-34.723743" />
          </g>
        </g>
        <rect
           style="fill:#f9f9f9;stroke-width:0.561245"
           id="rect48"
           width="27.685572"
           height="10.347059"
           x="11.458926"
           y="289.53052" />
      </g>
    </g>
  </g>
</svg>
