<?xml version="1.0" encoding="UTF-8" standalone="no"?>
<svg
   viewBox="0 0 512 512"
   version="1.1"
   id="svg1"
   sodipodi:docname="Infintry.svg"
   width="512"
   height="512"
   inkscape:version="1.4.2 (ebf0e940d0, 2025-05-08)"
   xmlns:inkscape="http://www.inkscape.org/namespaces/inkscape"
   xmlns:sodipodi="http://sodipodi.sourceforge.net/DTD/sodipodi-0.dtd"
   xmlns="http://www.w3.org/2000/svg"
   xmlns:svg="http://www.w3.org/2000/svg">
  <defs
     id="defs1">
    <clipPath
       clipPathUnits="userSpaceOnUse"
       id="clipPath26">
      <path
         style="fill:#241f1c;stroke-width:1.88976;paint-order:fill markers stroke"
         d="m 114.231,358.34482 h 150 v 0 l 51.35521,42.2069 -270.344831,9.37931 68.989621,-51.58621"
         id="path26" />
    </clipPath>
  </defs>
  <sodipodi:namedview
     id="namedview1"
     pagecolor="#505050"
     bordercolor="#eeeeee"
     borderopacity="1"
     inkscape:showpageshadow="0"
     inkscape:pageopacity="0"
     inkscape:pagecheckerboard="0"
     inkscape:deskcolor="#505050"
     inkscape:zoom="0.64081552"
     inkscape:cx="391.68839"
     inkscape:cy="182.57985"
     inkscape:window-width="1260"
     inkscape:window-height="653"
     inkscape:window-x="0"
     inkscape:window-y="0"
     inkscape:window-maximized="1"
     inkscape:current-layer="svg1" />
  <!--!Font Awesome Free 6.7.2 by @fontawesome - https://fontawesome.com License - https://fontawesome.com/license/free Copyright 2025 Fonticons, Inc.-->
  <g
     id="g26"
     transform="matrix(1.3794053,0,0,1.3794053,-53.971758,-15.842853)">
    <path
       d="m 200.35921,59.504015 c 0,-6.15527 -4.9729,-11.12816 -11.12816,-11.12816 -6.15526,0 -11.12816,4.97289 -11.12816,11.12816 v 11.12816 105.717495 38.94856 c 0,6.15526 4.9729,11.12816 11.12816,11.12816 6.15526,0 11.12816,-4.9729 11.12816,-11.12816 v -44.51264 l 22.36064,-5.59885 c 14.29273,-3.58188 29.42007,-1.91265 42.59998,4.65991 15.37077,7.68539 33.2106,8.62433 49.27688,2.57339 l 12.0671,-4.52081 c 4.34693,-1.63445 7.2333,-5.77274 7.2333,-10.43265 V 71.327685 c 0,-7.99837 -8.41567,-13.21469 -15.57942,-9.63282 l -3.33845,1.66923 c -16.10106,8.06791 -35.0537,8.06791 -51.15475,0 -12.2062,-6.12049 -26.22073,-7.65061 -39.47019,-4.34694 l -23.99509,6.05094 z"
       id="path1"
       style="fill:#f9f9f9;stroke-width:0.347755" />
    <path
       style="fill:#f9f9f9;stroke-width:1.88976;paint-order:fill markers stroke"
       d="m 200.359,59.504 10,-11.504 0.4,-16 h -10 v 11.034483 h -22.47 V 32.551724 h -10 V 48 l 10,11.504 z"
       id="path2"
       sodipodi:nodetypes="ccccccccccc" />
    <path
       style="fill:#f9f9f9;stroke-width:1.88976;paint-order:fill markers stroke"
       d="M 178.10289,195.82395 178.103,329.931 h 22.256 V 193.04191 Z"
       id="path3"
       sodipodi:nodetypes="ccccc" />
    <path
       style="fill:#f9f9f9;stroke-width:1.88976;paint-order:fill markers stroke"
       d="m 168.103,310.06897 h 42.256 v 23.17241 h -42.256 z"
       id="path4"
       sodipodi:nodetypes="ccccc" />
    <ellipse
       style="fill:#f9f9f9;stroke-width:1.88976;paint-order:fill markers stroke"
       id="path5"
       cx="189.231"
       cy="358.34482"
       rx="75"
       ry="40"
       clip-path="url(#clipPath26)"
       transform="matrix(1,0,0,-1,1.2999972,720.48982)" />
  </g>
</svg>
