<?xml version="1.0" encoding="UTF-8" standalone="no"?>
<!-- Created with Inkscape (http://www.inkscape.org/) -->

<svg
   width="512mm"
   height="512mm"
   viewBox="0 0 512 512"
   version="1.1"
   id="svg1"
   xml:space="preserve"
   inkscape:version="1.4.2 (ebf0e940d0, 2025-05-08)"
   sodipodi:docname="PDS.svg"
   xmlns:inkscape="http://www.inkscape.org/namespaces/inkscape"
   xmlns:sodipodi="http://sodipodi.sourceforge.net/DTD/sodipodi-0.dtd"
   xmlns="http://www.w3.org/2000/svg"
   xmlns:svg="http://www.w3.org/2000/svg"><sodipodi:namedview
     id="namedview1"
     pagecolor="#505050"
     bordercolor="#eeeeee"
     borderopacity="1"
     inkscape:showpageshadow="0"
     inkscape:pageopacity="0"
     inkscape:pagecheckerboard="0"
     inkscape:deskcolor="#505050"
     inkscape:document-units="mm"
     inkscape:zoom="0.18118895"
     inkscape:cx="960.32346"
     inkscape:cy="932.72796"
     inkscape:window-width="1260"
     inkscape:window-height="653"
     inkscape:window-x="0"
     inkscape:window-y="0"
     inkscape:window-maximized="1"
     inkscape:current-layer="layer1" /><defs
     id="defs1"><inkscape:path-effect
       effect="spiro"
       id="path-effect10"
       is_visible="true"
       lpeversion="1" /><inkscape:path-effect
       effect="spiro"
       id="path-effect7"
       is_visible="true"
       lpeversion="1" /><inkscape:path-effect
       effect="spiro"
       id="path-effect4"
       is_visible="true"
       lpeversion="1" /><inkscape:path-effect
       effect="spiro"
       id="path-effect3"
       is_visible="true"
       lpeversion="1" /><clipPath
       clipPathUnits="userSpaceOnUse"
       id="clipPath19"><g
         inkscape:label="Clip"
         id="use19"
         style="fill-rule:nonzero"><g
           id="g24"
           style="fill-rule:nonzero"><path
             style="fill:#000000;fill-rule:nonzero;stroke-width:0.499999"
             d="m 174.39048,317.90685 14.23103,-4.82407 v 17.84908 h 11.819 l -10.85418,-25.0852 -14.33904,1.49701 -0.85279,8.18674 z"
             id="path22" /><path
             style="fill:#000000;fill-rule:nonzero;stroke-width:0.499999"
             d="m 190.06874,247.71649 v 0 l 3.76926,-0.0251 26.38124,30.17565 -3.92506,14.6485 -15.37126,-9.82443 -14.95465,-20.26115 3.17941,-12.56397 z"
             id="path23" /><path
             style="fill:#000000;fill-rule:nonzero;stroke-width:0.499999"
             d="m 186.75988,258.22325 -11.0862,50.3143 12.62122,1.87614 16.54402,-33.08805 z"
             id="path24" /></g></g></clipPath></defs><g
     inkscape:label="Layer 1"
     inkscape:groupmode="layer"
     id="layer1"><g
       id="g32"
       transform="matrix(1.1423961,0,0,1.1423961,-50.890446,-45.069624)"><path
         style="fill:#000000;stroke-width:0.499999"
         d="m 364.06666,478.89583 79.90417,-15.34584 11.1125,-4.23333 v -32.80833 l 4.23333,-3.175 v -48.15417 l -73.025,51.32917 z"
         id="path1" /><path
         style="fill:#000000;stroke-width:0.499999"
         d="M 364.06666,478.89583 H 207.43333 l -2.11667,-2.11667 -34.925,-5.29167 v -3.175 l 32.27917,-30.69166 72.49583,-24.87084 111.125,13.75834 19.05,13.22916 -41.275,39.15834"
         id="path2" /><path
         style="fill:#000000;stroke-width:0.499999"
         d="m 459.31666,375.44375 c -0.11265,-3.22758 -1.23677,-6.41258 -3.175,-8.99584 -1.68869,-2.25067 -3.93458,-4.0067 -6.08542,-5.82083 -1.74577,-1.47247 -3.47813,-3.02149 -5.55625,-3.96875 -2.135,-0.97319 -4.57863,-1.25515 -6.87916,-0.79375"
         id="path3"
         inkscape:path-effect="#path-effect3"
         inkscape:original-d="m 459.31666,375.44375 c -1.05833,-3.175 -2.11667,-6.08542 -3.175,-8.99584 -1.05833,-2.91041 -4.23333,-3.88056 -6.08542,-5.82083 -1.85208,-1.94027 -3.61598,-2.73402 -5.55625,-3.96875 -1.94026,-1.23473 -4.49791,-0.44098 -6.87916,-0.79375" /><path
         style="fill:#000000;stroke-width:0.499999"
         d="m 169.6433,469.06084 c -3.6725,-0.37285 -7.33752,-0.81935 -10.99211,-1.33916 -8.62812,-1.22722 -17.19392,-2.86232 -25.81824,-4.11596 -3.25409,-0.47302 -6.52968,-0.89447 -9.69107,-1.79915 -3.16139,-0.90468 -6.2346,-2.32368 -8.64362,-4.56186 -1.54013,-1.43091 -2.80033,-3.21421 -3.36759,-5.23849 -0.7461,-2.66248 -0.19292,-5.66897 1.49671,-7.85772 1.51145,-1.95793 3.89207,-3.21826 6.36101,-3.36759"
         id="path4"
         inkscape:path-effect="#path-effect4"
         inkscape:original-d="m 169.6433,469.06084 c -3.16513,-0.9453 -7.07862,-1.14223 -10.99211,-1.33916 -3.91349,-0.19696 -17.21216,-2.74397 -25.81824,-4.11596 -8.60608,-1.37197 -12.34785,-4.49014 -18.33469,-6.36101 -5.98683,-1.8709 -2.12033,-3.24287 -3.36759,-5.23849 -1.24726,-1.99562 0.9978,-5.23848 1.49671,-7.85772 0.4989,-2.61925 4.24067,-2.24507 6.36101,-3.36759"
         transform="translate(0.74836,-0.74835)" /><path
         style="fill:#000000;stroke-width:0.499999"
         d="m 107.30708,372.66192 v 63.51976 l 12.48912,2.57273 -0.0594,1.27815 3.84668,11.77782 34.28443,11.69392 8.50467,-57.40649 -18.60396,-29.76633 z"
         id="path5" /><path
         style="fill:#000000;stroke-width:0.499999"
         d="m 170.39166,468.31249 14.40682,0.20752 5.28726,-15.5207 -33.51444,-15.69125 -1.81084,25.13632 z"
         id="path6" /><path
         style="fill:#000000;stroke-width:0.499999"
         d="m 107.30708,372.66192 c 0.24505,-1.30905 0.69837,-2.5789 1.33771,-3.74719 0.77362,-1.41367 1.8079,-2.66412 2.81419,-3.92282 1.13323,-1.41747 2.25254,-2.87106 3.66698,-4.00807 0.92862,-0.74649 1.96697,-1.34196 2.98474,-1.96141 0.92506,-0.56302 1.83894,-1.14954 2.81419,-1.6203 1.44742,-0.69869 3.01454,-1.13322 4.60504,-1.36446 0.5656,-0.0822 1.13488,-0.13916 1.70557,-0.17055"
         id="path7"
         inkscape:path-effect="#path-effect7"
         inkscape:original-d="m 107.30708,372.66192 c 0.4459,-1.22063 0.89181,-2.52656 1.33771,-3.74719 0.44591,-1.22063 1.87613,-2.55836 2.81419,-3.92282 0.93806,-1.36446 2.44465,-2.70047 3.66698,-4.00807 1.22232,-1.30762 2.04668,-1.33604 2.98474,-1.96141 0.93807,-0.62539 1.8477,-1.08021 2.81419,-1.6203 0.96649,-0.5401 3.0416,-0.8812 4.60504,-1.36446 1.56344,-0.48324 1.13705,-0.11369 1.70557,-0.17055" /><path
         style="fill:#000000;stroke-width:0.499999"
         d="m 127.2355,355.86712 v -6.48116 h 5.03143 v -20.04044 l 7.07812,-2.30253 13.13288,13.04761 -2.30252,26.26577 -3.24058,18.67601 -28.22718,-4.8609 2.72892,-20.9785 z"
         id="path8" /><path
         style="fill:#000000;stroke-width:0.499999"
         d="m 107.30708,372.66192 6.28386,6.91263 17.99376,-12.2801 -7.24867,-9.7644 L 109.75341,369 Z"
         id="path9" /><path
         style="fill:#000000;stroke-width:0.499999"
         d="m 139.28475,326.92239 c -0.0212,-2.94502 0.002,-5.89035 0.0709,-8.83465 0.11396,-4.90139 0.3521,-9.79927 0.65297,-14.69274 0.27004,-4.39208 0.59097,-8.7844 1.17676,-13.14561 0.63691,-4.74179 1.58539,-9.4357 2.56362,-14.119 0.98875,-4.7337 2.00922,-9.4634 3.26666,-14.13292 1.02464,-3.80502 2.21571,-7.59134 4.03838,-11.08503 1.16521,-2.23347 2.5836,-4.33472 4.2193,-6.2506"
         id="path10"
         inkscape:path-effect="#path-effect10"
         inkscape:original-d="m 139.28475,326.92239 c 0.0839,-2.82427 0.0472,-5.88976 0.0709,-8.83465 0.0236,-2.94486 0.51227,-9.86865 0.65297,-14.69274 0.1407,-4.82407 0.61395,-8.76374 1.17676,-13.14561 0.56281,-4.38187 1.7797,-9.73713 2.56362,-14.119 0.78391,-4.38187 1.87973,-8.92692 3.26666,-14.13292 1.38692,-5.20598 3.03337,-7.42677 4.03838,-11.08503 1.00502,-3.65826 3.15398,-4.30087 4.2193,-6.2506"
         sodipodi:nodetypes="ccsssssc" /><path
         style="fill:#000000;stroke-width:0.499999"
         d="m 139.34505,327.04299 5.13614,14.74306 15.67825,4.10046 5.06529,-40.76348 -20.98475,-12.8441 -3.61806,23.75858 z"
         id="path11" /><path
         style="fill:#000000;stroke-width:0.499999"
         d="m 139.28475,326.92239 0.0496,0.63228 1.57765,-1.65227 -1.55633,-0.20254 z"
         id="path12" /><path
         d="m 176.56803,231.81014 -17.85575,90.92055 29.90928,5.12785 V 313.0827 l -14.23117,4.82399 c -4.34245,-19.53597 10.94096,-63.61018 15.67811,-70.19003 l 3.76928,-0.0253 7.37888,8.44031 4.77903,-16.57728 z"
         style="stroke-width:0.499999"
         id="path21" /><path
         style="fill:#000000;fill-rule:nonzero;stroke-width:0.499999"
         d="m 155.27334,244.66184 -73.184729,-79.45206 3.613962,-27.36287 -7.744209,-23.7489 6.226686,-5.99449 -4.161563,-5.49276 56.876073,-50.406395 3.65065,3.650655 7.66638,-7.666376 60.41834,60.418336 3.10305,-3.10305 27.19738,27.19737 -1.91244,3.31245 36.90174,36.90174 10.09628,-7.17576 28.29259,28.29258 -19.89609,19.89607 18.07075,18.07074 3.83321,-3.10306 12.04714,12.04716 4.38078,-4.01572 h 9.12665 v -3.28559 l 11.68209,-8.03144 v -47.09345 l 8.03146,-6.93624 h 16.06288 l 6.93623,6.57118 v 32.12576 l -4.38078,70.8227 -137.99476,-49.28384 -60.2358,-10.5869 -24.70395,23.43216"
         id="path25"
         sodipodi:nodetypes="ccccccccccccccccccccccccccccccccc" /><path
         style="fill:#000000;fill-rule:nonzero;stroke-width:0.499999"
         d="m 382.58863,210.27772 h 17.97947 v 6.02358 h 8.48778 v 52.84323 l 13.78122,4.19825 14.23755,38.87947 v 43.7166 l 0.54618,-0.0743 10.36084,5.98183 -10.303,10.30301 h -58.72875 l -46.46183,-80.47427 30.78482,-53.32088 19.31572,-28.07655"
         id="path26" /><path
         style="fill:#000000;fill-rule:nonzero;stroke-width:0.499999"
         d="m 459.31666,375.44375 -4.81012,10.43048 -26.55853,-4.28953 1.27775,-15.69781 18.75591,-4.04051 10.63186,11.25054 z"
         id="path27" /><path
         style="fill:#000000;fill-rule:nonzero;stroke-width:0.499999"
         d="m 449.1641,370.68945 4.13025,40.26987 -114.6143,50.5955 -136.29807,-1.03256 -51.62806,-7.22791 -16.52097,-64.0188 16.52097,-58.856 118.74452,30.97683 -12.39072,-108.41891 2.06512,-39.23732 110.48404,61.95367 48.53038,78.47465 z"
         id="path28" /><path
         style="fill:#000000;fill-rule:nonzero;stroke-width:0.499999"
         d="m 155.27334,244.66184 -6.14409,15.26479 -6.02358,35.59387 8.76157,30.48299 16.61048,-20.44369 14.23756,-63.52138 16.97554,3.10305 16.42795,-30.84803 -41.61747,-4.38078 -19.16594,23.54672 z"
         id="path29" /><path
         style="fill:#000000;fill-rule:nonzero;stroke-width:0.499999"
         d="m 200.23842,330.56679 c -1.82533,-19.34847 6.75371,-32.12575 15.33275,-37.23667"
         id="path30"
         sodipodi:nodetypes="cc" /><path
         style="fill:#000000;fill-rule:nonzero;stroke-width:0.499999"
         d="M 200.23842,330.56679 H 188.4424 v -2.73897 l -2.5814,-4.89431 -25.23219,-3.86628 -8.03144,43.07774 144.931,20.44366 -10.22183,-112.44016 -16.42795,18.25326 -55.30742,4.92839 -10.3131,17.24936 -2.64673,8.21396 -2.00785,8.57903 z"
         id="path31" /><path
         style="fill:#000000;fill-rule:nonzero;stroke-width:0.499999"
         d="m 201.21666,256.13167 19.78586,19.78585 -5.43135,17.4126 4.10621,14.88938 64.53507,-17.03726 -2.83954,-76.15139 -77.44209,-10.32561 -8.51863,28.39543 z"
         id="path32" /></g></g></svg>
