<?xml version="1.0" encoding="UTF-8" standalone="no"?>
<!-- Created with Inkscape (http://www.inkscape.org/) -->

<svg
   width="512mm"
   height="512mm"
   viewBox="0 0 512 512"
   version="1.1"
   id="svg1"
   xml:space="preserve"
   inkscape:version="1.4.2 (ebf0e940d0, 2025-05-08)"
   sodipodi:docname="SpaceDock.svg"
   xmlns:inkscape="http://www.inkscape.org/namespaces/inkscape"
   xmlns:sodipodi="http://sodipodi.sourceforge.net/DTD/sodipodi-0.dtd"
   xmlns="http://www.w3.org/2000/svg"
   xmlns:svg="http://www.w3.org/2000/svg"><sodipodi:namedview
     id="namedview1"
     pagecolor="#505050"
     bordercolor="#eeeeee"
     borderopacity="1"
     inkscape:showpageshadow="0"
     inkscape:pageopacity="0"
     inkscape:pagecheckerboard="0"
     inkscape:deskcolor="#505050"
     inkscape:document-units="mm"
     inkscape:zoom="0.22761294"
     inkscape:cx="1122.5197"
     inkscape:cy="975.34"
     inkscape:window-width="1260"
     inkscape:window-height="653"
     inkscape:window-x="0"
     inkscape:window-y="0"
     inkscape:window-maximized="1"
     inkscape:current-layer="layer1" /><defs
     id="defs1" /><g
     inkscape:label="Layer 1"
     inkscape:groupmode="layer"
     id="layer1"><g
       id="g6"
       transform="matrix(1.2133234,0,0,1.2133234,-41.583136,-2.9721299)"><path
         style="fill:#000000;stroke-width:0.499999"
         d="M 167.26881,125.76 V 97.402228 l -3.69882,-31.234469 h -35.75525 l -3.28784,28.768589 v 34.111332 h -4.93176 l -4.52078,62.87992 v 50.55052 l -2.0549,-3.69882 H 96.991248 l -14.589786,14.58979 v 8.0141 l 86.511268,-1.64392 7.39763,-9.45253 V 158.63823 L 173.4335,125.76 Z"
         id="path1"
         sodipodi:nodetypes="cccccccccccccccccc" /><path
         style="fill:#000000;stroke-width:0.499999"
         d="m 82.401462,261.38319 -33.307284,19.22997 v 21.04607 l 33.68604,9.02613 v 12.7558 h 3.525555 v 10.68546 l 4.315288,4.31531 h 12.123909 v 14.1788 l 12.32939,1.64391 v 40.27604 l 43.56387,8.2196 24.82884,-6.65287 V 355.0866 l 7.63857,-0.82196 v 12.3294 l 12.32939,4.1098 v -65.75679 l -42.7419,-67.81167 z"
         id="path2" /><path
         style="fill:#000000;stroke-width:0.499999"
         d="m 203.43503,370.70384 11.91842,-0.82195 0.63994,-1.90122 h 14.60299 l 2.83341,1.38038 h 12.74715 v -32.76854 h 9.45254 v -11.50744 h 11.9184 v 2.05491 h 9.04158 v 19.31604 l 33.28937,0.41098 v 4.52078 l 21.19982,5.68049 27.70677,-1.57069 v 34.52233 l 35.75526,2.87684 -37.69175,-140.66746 -79.02654,33.40172 -95.75831,-14.58981 z"
         id="path3" /><path
         style="fill:#000000;stroke-width:0.499999"
         d="m 394.54068,392.89675 9.40255,-5.22748 v -37.19764 l 9.00883,-3.48729 v -30.51371 l 7.84637,-2.61545 v -13.36789 l 12.49609,-1.74366 v -2.61546 l 8.13697,-1.45304 V 284.2133 h -8.71818 v -5.52151 l -2.31465,-1.58861 -2.67137,-0.71922 -2.05489,-0.41098 -2.9796,-0.2055 h -2.36315 v -15.67453 l -63.63814,36.7415 24.00321,82.40723 z"
         id="path4" /><path
         style="fill:#000000;stroke-width:0.499999"
         d="m 420.32965,260.09295 h -2.36464 v -96.48141 l -3.85053,-28.18884 h -6.68396 V 52.309196 l -4.64971,-28.188844 h -31.09492 l -4.6497,27.898239 v 84.275929 h -8.42759 l -3.77788,27.89824 v 31.09491 h -8.137 v 40.39432 h -3.19667 v -20.63307 l -4.35909,-4.3591 h -15.11154 l -5.37623,5.37622 v 13.51321 l 17.5817,73.5235 47.6595,-2.90608 z"
         id="path5" /><path
         style="fill:#000000;stroke-width:0.499999"
         d="m 176.31036,250.28674 h 6.19062 v 2.83165 h 6.39334 v -41.84735 l 5.23092,-27.60764 h 9.88063 v -12.78669 l 3.19667,-14.82094 h 23.82975 l 4.06849,27.31703 h 9.59002 l 4.06849,26.73581 V 253.409 l 19.47066,-0.87182 v -8.7182 l 1.45301,-1.16243 v -7.26516 h 37.19767 l 4.35909,-5.52153 h 13.07729 l 10.75246,36.61643 -35.74463,36.90705 -104.61839,-6.97455 -44.46281,-28.77008 8.7182,-33.12914 z"
         id="path6" /></g></g></svg>
