<?xml version="1.0" encoding="UTF-8" standalone="no"?>
<!-- Created with Inkscape (http://www.inkscape.org/) -->

<svg
   width="512mm"
   height="512mm"
   viewBox="0 0 512 512"
   version="1.1"
   id="svg1"
   xml:space="preserve"
   inkscape:version="1.4.2 (ebf0e940d0, 2025-05-08)"
   sodipodi:docname="Fighter.svg"
   xmlns:inkscape="http://www.inkscape.org/namespaces/inkscape"
   xmlns:sodipodi="http://sodipodi.sourceforge.net/DTD/sodipodi-0.dtd"
   xmlns="http://www.w3.org/2000/svg"
   xmlns:svg="http://www.w3.org/2000/svg"><sodipodi:namedview
     id="namedview1"
     pagecolor="#505050"
     bordercolor="#eeeeee"
     borderopacity="1"
     inkscape:showpageshadow="0"
     inkscape:pageopacity="0"
     inkscape:pagecheckerboard="0"
     inkscape:deskcolor="#505050"
     inkscape:document-units="mm"
     inkscape:zoom="0.16094665"
     inkscape:cx="764.2284"
     inkscape:cy="1065.5705"
     inkscape:window-width="1260"
     inkscape:window-height="620"
     inkscape:window-x="0"
     inkscape:window-y="0"
     inkscape:window-maximized="1"
     inkscape:current-layer="layer1" /><defs
     id="defs1" /><g
     inkscape:label="Layer 1"
     inkscape:groupmode="layer"
     id="layer1"><g
       id="g9"
       transform="translate(10.645047,-3.1228017)"
       style="fill:#000000"><g
         id="g4"
         style="fill:#000000"><path
           style="fill:#000000;stroke-width:0.499999"
           d="M 46.852,16.850175 H 20.138 V 25.481 h -5.754 v 16.849925 l 5.754014,7.5e-5 -1.4e-5,60.00299 H 6.9866578 L 6.987,135.21238 H 20.138 86.305773 L 93.703409,90.826549 80.963033,78.086174 H 67.811678 V 67.400698 H 47.262684 V 42.331 H 52.606 v -16.85 h -5.754 z"
           id="path1"
           sodipodi:nodetypes="ccccccccccccccccccccc" /><path
           style="fill:#000000;stroke-width:0.499999"
           d="m 86.305773,135.21238 -5.753719,25.48075 1.232939,15.20625 H 92.059489 V 295.49452 H 76.442254 L 27.53565,224.80599 20.138,213.70953 V 201.79112 L 6.987,201.791 v -32.878 h 13.151 v -40.2763 l 57.537194,-0.41098 z"
           id="path2"
           sodipodi:nodetypes="ccccccccccccccc" /><path
           style="fill:#000000;stroke-width:0.499999"
           d="M 27.53565,224.80599 13.367906,311.53033 52.309,387.08806 V 406.849 H 34.291584 l 4.16e-4,67.42106 16.274,-6e-5 v 15.69282 h 60.446 V 474.27 h 16.274 l -2.9e-4,-67.421 h -5.23092 l -11.1334,-21.02695 V 323.7358 L 87.763209,292.05967 46.029744,218.23031 Z"
           id="path3"
           sodipodi:nodetypes="cccccccccccccccccc" /><path
           style="fill:#000000;stroke-width:0.499999"
           d="m 92.059489,186.99584 h 41.097991 l 5.75372,-11.50744 h 20.13801 l 26.30271,-35.34427 24.65879,-96.580265 h 70.68855 l 10.68546,149.596675 -2.87687,123.70493 -10.27448,140.96611 0.41098,43.56386 h -72.74344 v -27.12469 l -9.04155,-4.10977 -48.08465,-118.7732 v -55.0713 h -48.08464 l 5.12052,-8.869 H 91.237529 L 78.497154,209.18875 Z"
           id="path4" /></g><g
         id="g8"
         transform="matrix(-0.99999978,0,0,1,490.70991,0)"
         style="fill:#000000"><path
           style="fill:#000000;stroke-width:0.499999"
           d="M 46.852,16.850175 H 20.138 V 25.481 h -5.754 v 16.849925 l 5.754014,7.5e-5 -1.4e-5,60.00299 H 6.9866578 L 6.987,135.21238 H 20.138 86.305773 L 93.703409,90.826549 80.963033,78.086174 H 67.811678 V 67.400698 H 47.262684 V 42.331 H 52.606 v -16.85 h -5.754 z"
           id="path5"
           sodipodi:nodetypes="ccccccccccccccccccccc" /><path
           style="fill:#000000;stroke-width:0.499999"
           d="m 86.305773,135.21238 -5.753719,25.48075 1.232939,15.20625 H 92.059489 V 295.49452 H 76.442254 L 27.53565,224.80599 20.138,213.70953 V 201.79112 L 6.987,201.791 v -32.878 h 13.151 v -40.2763 l 57.537194,-0.41098 z"
           id="path6"
           sodipodi:nodetypes="ccccccccccccccc" /><path
           style="fill:#000000;stroke-width:0.499999"
           d="M 27.53565,224.80599 13.367906,311.53033 52.309,387.08806 V 406.849 H 34.291584 l 4.16e-4,67.42106 16.274,-6e-5 v 15.69282 h 60.446 V 474.27 h 16.274 l -2.9e-4,-67.421 h -5.23092 l -11.1334,-21.02695 V 323.7358 L 87.763209,292.05967 46.029744,218.23031 Z"
           id="path7"
           sodipodi:nodetypes="cccccccccccccccccc" /><path
           style="fill:#000000;stroke-width:0.499999"
           d="m 92.059489,186.99584 h 41.097991 l 5.75372,-11.50744 h 20.13801 l 26.30271,-35.34427 24.65879,-96.580265 h 70.68855 l 10.68546,149.596675 -2.87687,123.70493 -10.27448,140.96611 0.41098,43.56386 h -72.74344 v -27.12469 l -9.04155,-4.10977 -48.08465,-118.7732 v -55.0713 h -48.08464 l 5.12052,-8.869 H 91.237529 L 78.497154,209.18875 Z"
           id="path8" /></g></g></g></svg>
