<?xml version="1.0" encoding="UTF-8" standalone="no"?>
<!-- Created with Inkscape (http://www.inkscape.org/) -->

<svg
   width="51.200001mm"
   height="51.200001mm"
   viewBox="0 0 51.200001 51.200001"
   version="1.1"
   id="svg1"
   xml:space="preserve"
   inkscape:version="1.4.2 (ebf0e940d0, 2025-05-08)"
   sodipodi:docname="Graviton-Laser-System-Icon-New.svg"
   xmlns:inkscape="http://www.inkscape.org/namespaces/inkscape"
   xmlns:sodipodi="http://sodipodi.sourceforge.net/DTD/sodipodi-0.dtd"
   xmlns="http://www.w3.org/2000/svg"
   xmlns:svg="http://www.w3.org/2000/svg"><sodipodi:namedview
     id="namedview1"
     pagecolor="#505050"
     bordercolor="#eeeeee"
     borderopacity="1"
     inkscape:showpageshadow="0"
     inkscape:pageopacity="0"
     inkscape:pagecheckerboard="0"
     inkscape:deskcolor="#505050"
     inkscape:document-units="mm"
     inkscape:zoom="0.70710678"
     inkscape:cx="148.49242"
     inkscape:cy="244.65895"
     inkscape:window-width="1260"
     inkscape:window-height="653"
     inkscape:window-x="0"
     inkscape:window-y="0"
     inkscape:window-maximized="1"
     inkscape:current-layer="layer1" /><defs
     id="defs1" /><g
     inkscape:label="Layer 1"
     inkscape:groupmode="layer"
     id="layer1"><g
       id="g1"
       transform="matrix(0.100995,0,0,0.100995,0.04576227,-0.23955127)"
       style="fill:#28170b"><path
         fill="#f4f3f3"
         transform="scale(0.5)"
         d="m 734.83,114.205 c 0.885,-0.103 1.776,-0.161 2.667,-0.174 14.113,-0.09 28.447,8.032 38.331,17.584 50.183,48.498 74.166,161.161 84.21,228.527 2.954,19.808 6.166,40.335 6.505,60.346 -6.97,2.729 -13.688,5.552 -20.494,8.656 -1.071,-9.202 -1.64,-18.475 -2.604,-27.693 -1.643,-14.905 -3.601,-29.774 -5.874,-44.595 -8,-51.433 -28.033,-131.204 -57.793,-173.686 -8.507,-12.144 -22.038,-25.597 -37.294,-28.168 -10.222,-1.724 -20.462,1.691 -28.692,7.725 -9.152,6.709 -15.759,15.821 -21.771,25.303 -27.434,43.27 -40.816,104.16 -48.828,154.283 13.198,2.294 29.038,5.107 40.293,12.677 l 0.032,312.093 c -13.317,6.964 -25.555,11.957 -40.759,12.454 1.186,10.665 3.309,21.214 5.261,31.759 7.995,43.187 19.522,88.71 43.195,126.231 8.457,13.406 21.546,28.268 37.784,31.749 11.371,2.437 21.259,-1.368 30.734,-7.437 3.017,-2.089 5.904,-4.359 8.645,-6.799 50.741,-45.469 73.478,-196.466 76.838,-262.88 6.673,3.907 13.244,7.616 20.322,10.748 -0.01,20.09 -3.284,40.488 -6.143,60.337 -9.848,68.383 -29.38,162.098 -72.885,216.894 -11.053,13.922 -26.758,28.077 -45.222,30.078 -13.375,1.45 -25.914,-3.969 -36.113,-12.336 -39.819,-32.667 -63.27,-112.501 -73.799,-161.122 -7.313,-35.07 -12.738,-70.507 -16.251,-106.158 -13.1,-127.868 -6.898,-283.104 34.138,-405.205 9.709,-28.89 22.264,-60.623 41.77,-84.386 11.32,-13.789 25.577,-25.052 43.797,-26.805 z"
         id="path2"
         style="fill:#28170b" /><path
         fill="#f4f3f3"
         transform="scale(0.5)"
         d="m 712.299,92.715 c 4.415,-0.3504 9.206,0.5483 13.584,1.099 -4.956,1.5427 -9.836,3.1336 -14.437,5.5752 -42.316,22.4588 -70.113,92.8288 -83.609,136.2198 -18.029,57.964 -28.098,120.251 -33.128,180.683 -10.812,129.895 0.003,328.147 61.189,444.189 14.459,27.423 37.308,59.662 68.127,69.224 -9.115,1.901 -17.365,1.019 -26.403,-0.896 -12.231,-2.857 -23.867,-9.613 -33.426,-17.637 -65.61,-55.077 -94.791,-193.181 -105.641,-274.508 -2.13,-15.969 -3.506,-32.164 -4.903,-48.216 -5.16,-67 -3.757,-134.345 4.187,-201.072 1.284,-10.325 3.296,-20.61 4.982,-30.878 12.205,-74.35 35.481,-166.672 84.83,-225.192 16.898,-20.037 37.686,-36.3055 64.648,-38.591 z"
         id="path3"
         style="fill:#28170b" /><path
         fill="#f4f3f3"
         transform="scale(0.5)"
         d="m 895.189,434.777 c 42.322,-0.862 77.361,32.685 78.341,75.004 0.981,42.32 -32.468,77.453 -74.784,78.552 -42.485,1.104 -77.788,-32.507 -78.773,-74.994 -0.984,-42.488 32.725,-77.697 75.216,-78.562 z"
         id="path4"
         style="fill:#28170b" /><path
         fill="#f4f3f3"
         transform="scale(0.5)"
         d="m 526.908,482.25 c 1.592,-0.186 3.284,-0.572 4.849,-0.116 0.976,6.408 0.347,13.721 0.356,20.225 0.019,13.237 0.186,26.559 -0.439,39.783 -21.965,-2.81 -44.323,-3.65 -66.412,-5.104 -35.019,-2.501 -70.058,-4.702 -105.115,-6.603 L 69.8769,513.881 c -6.6135,-0.846 -13.6915,-0.984 -20.3679,-1.192 -3.5827,-0.111 -7.4439,0.115 -10.9609,-0.585 7.4723,-2.083 23.9638,-2.04 32.2717,-2.519 22.2359,-1.199 44.4632,-2.55 66.6812,-4.052 73.573,-4.785 147.179,-9.044 220.813,-12.775 33.979,-1.512 67.938,-3.425 101.871,-5.739 22.253,-1.366 44.548,-2.422 66.723,-4.769 z"
         id="path5"
         style="fill:#28170b" /><path
         fill="#f4f3f3"
         transform="scale(0.5)"
         d="m 708.964,382.684 c 1.345,0.671 2.663,1.397 3.95,2.175 23.89,14.389 43.335,40.146 54.179,65.593 3.513,8.244 5.979,16.707 8.16,25.373 -22.066,-0.601 -44.196,-0.259 -66.275,-0.459 -0.42,-30.871 -0.027,-61.804 -0.014,-92.682 z"
         id="path6"
         style="fill:#28170b" /><path
         fill="#f4f3f3"
         transform="scale(0.5)"
         d="m 732.696,549.25 c 14.064,-0.232 28.131,-0.277 42.197,-0.135 -7.853,29.429 -21.325,53.407 -42.777,75.068 -7.131,7.054 -14.707,13.966 -23.269,19.236 l 0.177,-94.152 c 7.89,0.105 15.782,0.1 23.672,-0.017 z"
         id="path7"
         style="fill:#28170b" /><path
         fill="#f4f3f3"
         transform="scale(0.5)"
         d="m 751.919,494.25 c 15.436,-0.212 30.875,-0.072 46.304,0.419 l 0.207,35.374 -43.407,-0.246 c -15.481,0.223 -30.966,0.118 -46.444,-0.315 -0.155,-11.557 0.34,-23.09 0.026,-34.659 14.38,-0.69 28.915,-0.446 43.314,-0.573 z"
         id="path8"
         style="fill:#28170b" /><path
         fill="#f4f3f3"
         transform="scale(0.5)"
         d="m 333.171,296.43 c 3.396,0.389 7.724,2.746 10.83,4.187 6.369,2.956 12.527,6.393 18.836,9.481 29.65,14.51 58.844,29.859 88.336,44.677 20.066,9.929 40.02,20.082 59.859,30.456 8.673,4.619 18.087,9.034 26.113,14.69 -0.282,7.665 -0.771,15.322 -1.467,22.96 -0.1,0.371 -0.346,0.733 -0.528,1.071 -2.957,-0.326 -153.011,-96.478 -171.682,-108.306 -10.024,-6.35 -19.883,-13.565 -30.297,-19.216 z"
         id="path9"
         style="fill:#28170b" /><path
         fill="#f4f3f3"
         transform="scale(0.5)"
         d="m 534.34,599.946 c 1.842,2.115 2.254,20.138 2.587,24.328 -19.098,10.93 -38.951,20.604 -58.517,30.665 -14.758,7.589 -29.271,15.651 -44.006,23.288 -7.976,4.134 -16.121,7.9 -24.141,11.941 l -47.172,23.995 c -7.977,4.067 -15.809,8.415 -23.956,12.14 l -1.449,0.561 c 2.441,-3.271 37.367,-25.054 43.649,-29.121 z"
         id="path10"
         style="fill:#28170b" /></g></g></svg>
