<?xml version="1.0" encoding="UTF-8" standalone="no"?>
<svg
   width="51.200001"
   height="51.200001"
   version="1.1"
   id="svg3"
   sodipodi:docname="Hyper-Metabolism-Icon.svg"
   inkscape:version="1.4.2 (ebf0e940d0, 2025-05-08)"
   xml:space="preserve"
   xmlns:inkscape="http://www.inkscape.org/namespaces/inkscape"
   xmlns:sodipodi="http://sodipodi.sourceforge.net/DTD/sodipodi-0.dtd"
   xmlns="http://www.w3.org/2000/svg"
   xmlns:svg="http://www.w3.org/2000/svg"><defs
     id="defs3" /><sodipodi:namedview
     id="namedview3"
     pagecolor="#505050"
     bordercolor="#eeeeee"
     borderopacity="1"
     inkscape:showpageshadow="0"
     inkscape:pageopacity="0"
     inkscape:pagecheckerboard="0"
     inkscape:deskcolor="#505050"
     inkscape:zoom="0.6587694"
     inkscape:cx="125.99249"
     inkscape:cy="22.769728"
     inkscape:window-width="1025"
     inkscape:window-height="653"
     inkscape:window-x="0"
     inkscape:window-y="0"
     inkscape:window-maximized="1"
     inkscape:current-layer="svg3" /><g
     id="g3"
     transform="matrix(0.78916565,0,0,1.0323156,-264.4845,-301.92064)"
     style="fill:#f9f9f9"><path
       fill="#fefefe"
       d="m 359.80644,295.773 c 1.83136,0.21921 3.65534,0.48929 5.48753,0.69677 -0.31332,1.09018 -0.48447,2.20659 -0.41434,3.32081 0.15939,2.52983 1.49536,4.82296 4.07542,6.54353 1.39242,-1.26953 3.21654,-2.3134 5.31966,-2.88745 2.33346,-0.63686 4.81962,-0.55707 7.08008,0.19337 3.85916,1.28126 6.25004,3.91712 7.69003,6.71773 2.31186,4.49643 1.79705,9.96897 -0.93571,14.30095 -2.46661,3.91007 -6.62555,7.01981 -12.23816,8.52336 -3.56047,0.95384 -7.80677,1.02638 -11.44817,0.27655 -1.21143,-0.24942 -2.3474,-0.61142 -3.48597,-0.99558 -1.1126,-0.35962 -2.19485,-0.85586 -3.17758,-1.37924 -0.58549,-0.31182 -1.16208,-0.67889 -1.79856,-0.93307 -0.18482,-0.0738 -0.3654,-0.1103 -0.57578,-0.11984 -0.70769,-0.032 -1.36535,0.15521 -1.87237,0.51254 -2.31637,1.63293 -3.07478,5.88701 -3.14204,8.21949 -1.89793,-0.055 -3.81063,-0.0378 -5.71048,-0.0554 0.12672,-2.71525 0.5725,-5.57011 2.05391,-8.0918 1.1305,-1.92427 2.91894,-3.8878 5.69968,-4.68434 1.92555,-0.5516 3.91289,-0.37452 5.77843,0.20848 1.10849,-0.30348 2.21234,-0.61858 3.20136,-1.10071 2.95408,-1.44035 5.14879,-3.92428 5.81329,-6.45729 0.79586,-3.03392 0.10197,-5.79091 -2.27796,-8.35035 l 0.51576,-0.36757 c -0.98273,-0.65295 -1.83027,-1.31832 -2.60508,-2.10493 -3.66437,-3.72007 -4.02266,-7.61304 -3.03295,-11.98606 z"
       id="path2"
       style="fill:#f9f9f9;stroke-width:0.116549" /></g></svg>
